<svg width="24" height="25" viewBox="0 0 24 25" fill="none" xmlns="http://www.w3.org/2000/svg">
<g id="ChartBar">
<path id="Vector" d="M20.9028 19.2431H20.1563V4.31257C20.1563 4.11458 20.0776 3.92469 19.9376 3.78469C19.7976 3.64469 19.6078 3.56604 19.4098 3.56604H14.1841C13.9861 3.56604 13.7962 3.64469 13.6562 3.78469C13.5162 3.92469 13.4375 4.11458 13.4375 4.31257V8.04521H8.95837C8.76038 8.04521 8.5705 8.12386 8.4305 8.26386C8.2905 8.40386 8.21185 8.59374 8.21185 8.79173V12.5244H4.47921C4.28122 12.5244 4.09133 12.603 3.95133 12.743C3.81133 12.883 3.73268 13.0729 3.73268 13.2709V19.2431H2.98615C2.78816 19.2431 2.59828 19.3218 2.45828 19.4618C2.31828 19.6018 2.23962 19.7917 2.23962 19.9897C2.23962 20.1876 2.31828 20.3775 2.45828 20.5175C2.59828 20.6575 2.78816 20.7362 2.98615 20.7362H20.9028C21.1008 20.7362 21.2907 20.6575 21.4307 20.5175C21.5707 20.3775 21.6493 20.1876 21.6493 19.9897C21.6493 19.7917 21.5707 19.6018 21.4307 19.4618C21.2907 19.3218 21.1008 19.2431 20.9028 19.2431ZM14.9306 5.0591H18.6632V19.2431H14.9306V5.0591ZM9.7049 9.53826H13.4375V19.2431H9.7049V9.53826ZM5.22573 14.0174H8.21185V19.2431H5.22573V14.0174Z" fill="#919191"/>
</g>
</svg>
