<svg width="24" height="25" viewBox="0 0 24 25" fill="none" xmlns="http://www.w3.org/2000/svg">
<g id="Database">
<path id="Vector" d="M11.9444 2.81958C6.92122 2.81958 2.98608 5.11515 2.98608 8.04527V17.0036C2.98608 19.9337 6.92122 22.2293 11.9444 22.2293C16.9676 22.2293 20.9028 19.9337 20.9028 17.0036V8.04527C20.9028 5.11515 16.9676 2.81958 11.9444 2.81958ZM19.4097 12.5244C19.4097 13.4221 18.6744 14.3376 17.3931 15.0365C15.9505 15.8232 14.0151 16.2571 11.9444 16.2571C9.87374 16.2571 7.93836 15.8232 6.4957 15.0365C5.21447 14.3376 4.47914 13.4221 4.47914 12.5244V10.9717C6.07111 12.3714 8.79314 13.271 11.9444 13.271C15.0957 13.271 17.8177 12.3677 19.4097 10.9717V12.5244ZM6.4957 5.53321C7.93836 4.74655 9.87374 4.31264 11.9444 4.31264C14.0151 4.31264 15.9505 4.74655 17.3931 5.53321C18.6744 6.23215 19.4097 7.14757 19.4097 8.04527C19.4097 8.94297 18.6744 9.8584 17.3931 10.5573C15.9505 11.344 14.0151 11.7779 11.9444 11.7779C9.87374 11.7779 7.93836 11.344 6.4957 10.5573C5.21447 9.8584 4.47914 8.94297 4.47914 8.04527C4.47914 7.14757 5.21447 6.23215 6.4957 5.53321ZM17.3931 19.5157C15.9505 20.3023 14.0151 20.7362 11.9444 20.7362C9.87374 20.7362 7.93836 20.3023 6.4957 19.5157C5.21447 18.8167 4.47914 17.9013 4.47914 17.0036V15.4508C6.07111 16.8506 8.79314 17.7501 11.9444 17.7501C15.0957 17.7501 17.8177 16.8468 19.4097 15.4508V17.0036C19.4097 17.9013 18.6744 18.8167 17.3931 19.5157Z" fill="#919191"/>
</g>
</svg>
