<svg width="22" height="23" viewBox="0 0 22 23" fill="none" xmlns="http://www.w3.org/2000/svg">
<g id="ProjectorScreenChart">
<path id="Vector" d="M7.52435 12.8924V11.5244C7.52435 11.343 7.59641 11.169 7.72469 11.0407C7.85297 10.9124 8.02696 10.8403 8.20837 10.8403C8.38979 10.8403 8.56377 10.9124 8.69205 11.0407C8.82033 11.169 8.8924 11.343 8.8924 11.5244V12.8924C8.8924 13.0738 8.82033 13.2478 8.69205 13.3761C8.56377 13.5044 8.38979 13.5765 8.20837 13.5765C8.02696 13.5765 7.85297 13.5044 7.72469 13.3761C7.59641 13.2478 7.52435 13.0738 7.52435 12.8924ZM10.9445 13.5765C11.1259 13.5765 11.2999 13.5044 11.4282 13.3761C11.5564 13.2478 11.6285 13.0738 11.6285 12.8924V10.8403C11.6285 10.6589 11.5564 10.4849 11.4282 10.3567C11.2999 10.2284 11.1259 10.1563 10.9445 10.1563C10.7631 10.1563 10.5891 10.2284 10.4608 10.3567C10.3325 10.4849 10.2605 10.6589 10.2605 10.8403V12.8924C10.2605 13.0738 10.3325 13.2478 10.4608 13.3761C10.5891 13.5044 10.7631 13.5765 10.9445 13.5765ZM13.6806 13.5765C13.862 13.5765 14.036 13.5044 14.1643 13.3761C14.2926 13.2478 14.3646 13.0738 14.3646 12.8924V10.1563C14.3646 9.9749 14.2926 9.80092 14.1643 9.67264C14.036 9.54436 13.862 9.47229 13.6806 9.47229C13.4992 9.47229 13.3252 9.54436 13.1969 9.67264C13.0686 9.80092 12.9966 9.9749 12.9966 10.1563V12.8924C12.9966 13.0738 13.0686 13.2478 13.1969 13.3761C13.3252 13.5044 13.4992 13.5765 13.6806 13.5765ZM18.4688 7.42021V15.6285H19.1528C19.3342 15.6285 19.5082 15.7006 19.6365 15.8289C19.7648 15.9572 19.8368 16.1312 19.8368 16.3126C19.8368 16.494 19.7648 16.668 19.6365 16.7962C19.5082 16.9245 19.3342 16.9966 19.1528 16.9966H11.6285V18.4826C12.0849 18.644 12.4696 18.9615 12.7145 19.3791C12.9594 19.7966 13.0489 20.2873 12.967 20.7644C12.8852 21.2415 12.6373 21.6743 12.2672 21.9863C11.8971 22.2983 11.4286 22.4695 10.9445 22.4695C10.4604 22.4695 9.99191 22.2983 9.62181 21.9863C9.2517 21.6743 9.00381 21.2415 8.92195 20.7644C8.8401 20.2873 8.92954 19.7966 9.17447 19.3791C9.41941 18.9615 9.80406 18.644 10.2605 18.4826V16.9966H2.73615C2.55474 16.9966 2.38075 16.9245 2.25247 16.7962C2.12419 16.668 2.05212 16.494 2.05212 16.3126C2.05212 16.1312 2.12419 15.9572 2.25247 15.8289C2.38075 15.7006 2.55474 15.6285 2.73615 15.6285H3.42018V7.42021C3.05735 7.42021 2.70938 7.27607 2.45282 7.01951C2.19626 6.76295 2.05212 6.41498 2.05212 6.05215V4.6841C2.05212 4.32126 2.19626 3.97329 2.45282 3.71673C2.70938 3.46017 3.05735 3.31604 3.42018 3.31604H18.4688C18.8316 3.31604 19.1796 3.46017 19.4362 3.71673C19.6927 3.97329 19.8368 4.32126 19.8368 4.6841V6.05215C19.8368 6.41498 19.6927 6.76295 19.4362 7.01951C19.1796 7.27607 18.8316 7.42021 18.4688 7.42021ZM11.6285 20.4167C11.6285 20.2814 11.5884 20.1492 11.5132 20.0367C11.4381 19.9242 11.3312 19.8365 11.2063 19.7848C11.0813 19.733 10.9437 19.7195 10.811 19.7458C10.6783 19.7722 10.5565 19.8374 10.4608 19.9331C10.3651 20.0287 10.3 20.1506 10.2736 20.2833C10.2472 20.416 10.2608 20.5535 10.3125 20.6785C10.3643 20.8035 10.452 20.9103 10.5645 20.9855C10.6769 21.0606 10.8092 21.1008 10.9445 21.1008C11.1259 21.1008 11.2999 21.0287 11.4282 20.9004C11.5564 20.7721 11.6285 20.5982 11.6285 20.4167ZM3.42018 6.05215H18.4688V4.6841H3.42018V6.05215ZM17.1007 7.42021H4.78823V15.6285H17.1007V7.42021Z" fill="#919191"/>
</g>
</svg>
