<svg width="23" height="23" viewBox="0 0 23 23" fill="none" xmlns="http://www.w3.org/2000/svg">
<g id="Scales">
<path id="Vector" d="M20.68 11.9563L17.9161 5.04659C17.8552 4.89439 17.7422 4.76878 17.5973 4.69221C17.4524 4.61563 17.2849 4.59307 17.1249 4.62855L11.7466 5.82393V3.92376C11.7466 3.7405 11.6738 3.56475 11.5442 3.43517C11.4146 3.30559 11.2388 3.23279 11.0556 3.23279C10.8723 3.23279 10.6966 3.30559 10.567 3.43517C10.4374 3.56475 10.3646 3.7405 10.3646 3.92376V6.13314L4.68655 7.39503C4.57707 7.41921 4.47512 7.46967 4.3895 7.54205C4.30388 7.61443 4.23716 7.70656 4.19509 7.81048V7.81566L1.4312 14.7202C1.39814 14.8026 1.38142 14.8906 1.38197 14.9793C1.38197 16.9926 3.50153 17.7432 4.83683 17.7432C6.17214 17.7432 8.29169 16.9926 8.29169 14.9793C8.29225 14.8906 8.27553 14.8026 8.24246 14.7202L5.78001 8.56796L10.3646 7.55136V18.4342H8.98267C8.79941 18.4342 8.62366 18.507 8.49407 18.6366C8.36449 18.7661 8.29169 18.9419 8.29169 19.1251C8.29169 19.3084 8.36449 19.4842 8.49407 19.6137C8.62366 19.7433 8.79941 19.8161 8.98267 19.8161H13.1285C13.3118 19.8161 13.4875 19.7433 13.6171 19.6137C13.7467 19.4842 13.8195 19.3084 13.8195 19.1251C13.8195 18.9419 13.7467 18.7661 13.6171 18.6366C13.4875 18.507 13.3118 18.4342 13.1285 18.4342H11.7466V7.24215L16.1515 6.26443L13.8687 11.9563C13.8356 12.0387 13.8189 12.1267 13.8195 12.2154C13.8195 14.2287 15.939 14.9793 17.2743 14.9793C18.6096 14.9793 20.7292 14.2287 20.7292 12.2154C20.7297 12.1267 20.713 12.0387 20.68 11.9563ZM4.83683 16.3613C4.18645 16.3613 2.87102 16.0495 2.76996 15.0968L4.83683 9.93004L6.9037 15.0968C6.80265 16.0495 5.48721 16.3613 4.83683 16.3613ZM17.2743 13.5974C16.624 13.5974 15.3085 13.2856 15.2075 12.3329L17.2743 7.16615L19.3412 12.3329C19.2401 13.2856 17.9247 13.5974 17.2743 13.5974Z" fill="#919191"/>
</g>
</svg>
